<?xml version="1.0" standalone="no"?><!DOCTYPE svg PUBLIC "-//W3C//DTD SVG 1.1//EN" "http://www.w3.org/Graphics/SVG/1.1/DTD/svg11.dtd"><svg t="1615859454469" class="icon" viewBox="0 0 1024 1024" version="1.1" xmlns="http://www.w3.org/2000/svg" p-id="5230" xmlns:xlink="http://www.w3.org/1999/xlink" width="200" height="200"><defs><style type="text/css"></style></defs><path d="M925.312 334.592c-6.912-12.544-23.04-41.6-37.504-63.488-11.008-16.384-25.6-41.856-27.776-46.592-5.632-12.8-22.784-24.832-46.592-40.32-3.712-2.432-7.424-4.864-11.136-7.424-12.032-8.576-25.472-18.304-42.112-16-28.288 4.224-54.656 29.44-52.608 64 0.896 14.592 8.96 28.672 23.168 39.424 16.128 12.416 36.992 18.816 54.528 15.488l16.128-13.184c7.04 11.648 31.872 50.176 32.128 68.608 0.512 27.008 9.856 84.096 11.136 97.664-11.904-3.072-39.168-4.096-53.12 0.896-9.856 3.072-38.272 16.768-45.824 23.936l-12.16-8.064c-17.408-11.52-34.432-29.952-50.944-29.184-14.72 0.64-61.568-4.608-69.248-2.304-9.856-8.064-33.536-38.656-41.472-48.64 0.256-0.256 0.384-0.64 0.64-0.896 21.248-29.952 50.048-88.704 50.048-111.488 0-29.824-7.808-127.104-109.184-127.104s-109.184 97.152-109.184 127.104c0 22.784 33.92 79.616 55.168 109.696l0.64 0.896c-7.936 9.856-37.76 46.976-47.616 55.04-7.68-2.304-40.32-3.072-55.04-3.712-16.896-0.896-36.352 12.288-53.76 23.808l-24.064 14.592c-0.256 0.128-0.512 0.128-0.64 0-7.424-6.912-29.696-25.088-40.192-27.52-30.208-7.168-40.96-4.352-51.328 2.432-1.792 1.28 3.84-85.504 4.352-112.768 0.256-17.024 18.432-30.976 25.984-43.904 2.048-0.512 22.656 3.2 30.336 4.736 16.256 3.2 35.712-6.016 48.384-15.872 16.256-12.672 25.856-28.416 26.752-44.416 2.048-33.664-25.216-54.656-54.4-59.136-16.256-2.432-33.792 9.088-45.824 17.792-3.584 2.56-7.296 4.992-11.008 7.296-23.808 15.488-41.088 27.392-46.592 40.32-2.048 4.736-15.232 21.76-26.112 38.144-14.464 21.888-29.44 44.544-36.48 57.216-9.728 18.048-45.312 170.368-32.384 190.464 5.248 7.936 21.888 12.672 92.416 51.2l11.392 6.272c16.256 8.96 59.392 19.968 87.168 18.56 5.12 4.608 30.848 38.912 58.368 83.456l8.32 12.928c4.992 7.296 7.04 10.496 7.168 15.744 0.512 8.064 1.408 94.592 2.304 130.048 0.512 18.432 15.744 33.024 34.176 32.512l285.696-1.28c18.432 0.384 33.792-14.208 34.176-32.64 0.896-35.456 0.384-113.792 1.024-121.856 0.384-5.248 2.304-8.448 7.296-15.616l34.688-48.64c27.52-44.672 48-51.456 53.12-56.064 27.648 1.408 50.048-2.304 66.432-11.264l11.136-6.144c70.656-38.656 103.296-47.872 104.064-57.472 5.632-67.84-34.176-159.232-44.032-177.28z m0 0" fill="#aaaaaa" p-id="5231"></path><path d="M984.96 347.52c-8.832-16.128-28.032-45.184-46.592-73.088-14.08-21.12-33.28-50.176-35.968-56.192-7.168-16.512-29.312-31.872-59.776-51.712-4.864-3.072-9.6-6.144-14.208-9.472-15.488-11.008-32.64-23.424-54.016-20.48-36.352 5.504-74.88 42.496-72.192 86.784 1.024 18.688 11.52 36.736 29.696 50.688 20.736 16 47.488 24.192 69.888 19.84l17.408-3.456c9.088 14.976 20.736 31.744 21.12 55.424 0.64 34.688 1.536 58.752 3.2 76.288-15.36-3.968-34.816-6.144-52.608 0.128-12.672 3.968-24.192 10.752-33.792 19.84l-15.488-10.368c-22.4-14.72-45.312-29.952-66.432-29.056-18.944 0.768-31.36 1.92-41.216 4.864-12.544-10.24-24.064-21.888-34.304-34.56 0.256-0.384 0.512-0.768 0.896-1.152 27.264-38.528 52.352-78.08 52.352-107.264 0-38.272-9.984-162.944-140.032-162.944-130.048 0-140.032 124.672-140.032 162.944 0 29.184 25.216 68.736 52.48 107.264l0.896 1.152c-10.112 12.672-21.632 24.32-34.304 34.56-9.856-2.944-22.4-4.096-41.216-4.992-21.76-1.152-44.032 14.336-66.432 29.056l-15.104 10.112c-0.256 0.128-0.64 0.128-0.768 0-9.472-8.832-20.864-15.488-33.28-19.456-17.92-6.144-36.864-4.096-52.608 0 1.536-17.28 2.432-41.6 3.2-76.544 0.384-21.76 10.24-37.888 19.968-54.4 2.688-0.64 11.776 1.152 21.632 3.2 20.864 3.968 45.824-7.808 61.952-20.352 20.864-16.256 33.152-36.48 34.304-56.96 2.56-43.264-34.688-74.88-72.192-80.512-20.864-3.2-38.656 9.344-54.016 20.48-4.608 3.2-9.344 6.4-14.208 9.344-30.592 19.84-52.608 35.2-59.776 51.84-2.688 6.016-21.888 34.944-35.968 55.936-18.56 28.16-37.888 57.088-46.72 73.344-12.544 23.04-51.456 171.52-34.944 197.248 6.656 10.24 24.96 23.168 115.456 72.704l14.592 7.936c20.864 11.52 49.408 16.256 84.992 14.464 6.528 5.888 21.76 24.704 57.088 81.792l10.624 16.64c6.272 9.344 8.96 13.44 9.216 20.224 0.64 10.368 2.432 77.056 3.584 122.496 0.64 23.68 20.224 42.368 43.776 41.728l335.488 0.128c23.68 0.512 43.264-18.176 43.904-41.856 1.152-45.44 2.816-112.128 3.584-122.624 0.384-6.784 2.944-10.752 9.344-20.096l10.496-16.384c35.328-57.344 50.56-76.16 57.088-82.048 35.584 1.792 64.256-2.944 85.248-14.464l14.336-7.936c90.624-49.536 108.8-62.464 115.456-72.832 16.512-25.728-22.528-174.208-35.072-197.248z m15.232 181.248c-0.896 10.24-35.712 20.224-111.488 61.568l-11.904 6.656c-17.536 9.6-41.472 13.696-71.168 12.16-5.504 4.992-27.52 12.16-56.96 60.032l-37.248 52.096c-5.248 7.68-7.424 11.136-7.808 16.768-0.64 8.704-0.128 92.672-1.024 130.56-0.512 19.712-16.896 35.328-36.608 34.944l-305.92 1.408c-19.712 0.512-36.096-15.104-36.608-34.816-1.024-38.016-1.92-130.56-2.432-139.264-0.256-5.632-2.432-9.088-7.68-16.896l-8.96-13.824c-29.568-47.616-57.088-84.352-62.592-89.344-29.696 1.536-75.904-10.24-93.312-19.84l-12.16-6.656c-75.52-41.344-93.44-46.336-98.944-54.912C23.552 507.52 61.568 344.32 72.064 325.12c7.424-13.568 23.424-37.76 39.04-61.184 11.776-17.536 25.856-35.712 28.032-40.832 6.016-13.824 24.448-26.752 49.92-43.264 3.968-2.56 7.936-5.12 11.904-7.808 12.928-9.344 31.616-21.76 49.152-19.072 31.36 4.736 60.416 27.264 58.368 63.232-1.024 17.024-11.136 33.92-28.544 47.488-13.44 10.496-34.304 20.352-51.712 17.024-8.192-1.664-30.208-5.632-32.384-5.12-8.064 13.824-27.52 28.8-27.776 46.976-0.64 29.184-6.656 122.112-4.608 120.704 11.008-7.296 22.528-10.24 54.912-2.688 11.264 2.688 35.072 22.016 43.008 29.44 0.128 0.128 0.512 0.256 0.64 0l25.728-15.616c18.688-12.288 39.424-26.496 57.6-25.472 15.744 0.64 50.56 1.408 58.88 3.968 10.496-8.576 42.496-48.256 50.944-58.88l-0.768-1.024c-22.784-32.128-59.008-93.056-59.008-117.376 0-32 8.448-136.064 116.992-136.064 108.544 0 116.864 104.192 116.864 136.064 0 24.32-30.848 87.296-53.632 119.424-0.256 0.256-0.512 0.64-0.768 0.896 8.448 10.624 33.92 43.52 44.416 51.968 8.192-2.56 58.368 3.072 74.112 2.432 17.664-0.768 35.84 18.944 54.528 31.232l12.928 8.704c8.064-7.552 38.528-22.272 49.024-25.6 14.848-5.248 44.032-4.096 56.832-0.896-1.408-14.592-11.392-75.648-11.904-104.576-0.384-19.712-26.88-60.928-34.432-73.472l-17.28 14.208c-18.688 3.584-41.088-3.2-58.368-16.512-15.104-11.648-23.808-26.624-24.704-42.24-2.176-36.992 25.984-63.872 56.32-68.48 17.92-2.56 32.256 7.808 45.184 17.024 3.84 2.688 7.808 5.376 11.904 7.936 25.472 16.64 43.904 29.44 49.92 43.136 2.304 5.12 18.048 32.384 29.824 49.92 15.488 23.424 32.768 54.528 40.192 67.968 10.112 19.584 52.736 117.376 46.848 190.08z" fill="#aaaaaa" p-id="5232"></path></svg>